<svg width="25" height="25" viewBox="0 0 25 25" fill="none" xmlns="http://www.w3.org/2000/svg">
<g clip-path="url(#clip0_122_253)">
<path d="M21.6851 12.2539C21.6783 12.2685 21.6715 12.283 21.6647 12.2975C21.3976 12.8659 20.5432 12.6402 20.5958 12.0145C20.692 10.8708 20.5505 9.68858 20.1384 8.53742C18.8008 4.80083 14.3098 0.546217 10.3328 0.500045C9.90816 0.495123 9.66431 0.98131 9.91495 1.32415C10.2491 1.78119 10.5205 2.29639 10.7126 2.86151C11.3433 4.71659 10.9551 6.69162 9.84459 8.159C9.38166 8.77072 8.39869 8.46861 8.38252 7.70164C8.38238 7.69611 8.38228 7.69053 8.38219 7.68495C8.37567 7.27836 8.44238 6.88798 8.57034 6.52643C8.62678 6.36701 8.47899 6.21012 8.31708 6.25892C6.06253 6.93847 4.34817 10.2561 4.34817 12.6225C4.34817 12.7953 4.35778 12.9659 4.37564 13.134C4.37784 13.4483 4.43095 13.768 4.542 14.0824C4.54599 14.0937 4.55002 14.1049 4.55405 14.1162C4.58864 14.2128 4.62539 14.3081 4.66317 14.4026C4.12922 13.7498 3.675 13.0293 3.31575 12.2556C3.14883 11.8962 2.6205 11.9675 2.55563 12.3585C2.44003 13.0548 2.37952 13.7339 2.37952 14.3795C2.37952 19.9689 6.91059 24.5 12.5 24.5C18.0893 24.5 22.6204 19.9689 22.6204 14.3795C22.6204 13.7339 22.5599 13.0547 22.4443 12.3583C22.3795 11.9683 21.8515 11.8952 21.6851 12.2539Z" fill="url(#paint0_linear_122_253)"/>
<path d="M4.34817 12.6225C4.34817 12.7953 4.35778 12.9659 4.37564 13.134C4.37784 13.4483 4.43095 13.7679 4.542 14.0824C4.54599 14.0937 4.55002 14.1049 4.55405 14.1162C4.58864 14.2128 4.62539 14.308 4.66317 14.4025C4.12922 13.7498 3.675 13.0292 3.31575 12.2556C3.14883 11.8962 2.6205 11.9675 2.55563 12.3585C2.44003 13.0548 2.37952 13.7339 2.37952 14.3795C2.37947 19.9689 6.91055 24.5 12.4999 24.5C18.0893 24.5 22.6204 19.9689 22.6204 14.3795C22.6204 13.7339 22.5599 13.0547 22.4442 12.3583C22.3794 11.9683 21.8514 11.8952 21.685 12.2539C21.6782 12.2685 21.6714 12.283 21.6646 12.2975C21.3975 12.8659 20.5431 12.6402 20.5957 12.0145C20.618 11.7497 20.6269 11.4829 20.6233 11.2149H4.52119C4.40841 11.7018 4.34817 12.1788 4.34817 12.6225Z" fill="url(#paint1_linear_122_253)"/>
<path d="M4.34817 12.6225C4.34817 12.7953 4.35778 12.9659 4.37564 13.134C4.37784 13.4483 4.43095 13.7679 4.542 14.0824C4.54599 14.0937 4.55002 14.1049 4.55405 14.1162C4.58864 14.2128 4.62539 14.308 4.66317 14.4025C4.12922 13.7498 3.675 13.0292 3.31575 12.2556C3.14883 11.8962 2.6205 11.9675 2.55563 12.3585C2.44003 13.0548 2.37952 13.7339 2.37952 14.3795C2.37947 19.9689 6.91055 24.5 12.4999 24.5C18.0893 24.5 22.6204 19.9689 22.6204 14.3795C22.6204 13.7339 22.5599 13.0547 22.4442 12.3583C22.3794 11.9683 21.8514 11.8952 21.685 12.2539C21.6782 12.2685 21.6714 12.283 21.6646 12.2975C21.3975 12.8659 20.5431 12.6402 20.5957 12.0145C20.618 11.7497 20.6269 11.4829 20.6233 11.2149H4.52119C4.40841 11.7018 4.34817 12.1788 4.34817 12.6225Z" fill="url(#paint2_linear_122_253)"/>
<path d="M22.6205 14.3795C22.6205 13.7339 22.5599 13.0547 22.4443 12.3583C22.3795 11.9683 21.8515 11.8952 21.6851 12.2539C21.6783 12.2685 21.6715 12.283 21.6647 12.2975C21.3976 12.8659 20.5431 12.6402 20.5958 12.0145C20.692 10.8708 20.5505 9.68858 20.1384 8.53742C18.8008 4.80083 14.3098 0.546217 10.3329 0.500045C9.90819 0.495123 9.66434 0.98131 9.91499 1.3242C10.2492 1.78123 10.5205 2.29644 10.7127 2.86156C11.3433 4.71664 10.9551 6.69167 9.84463 8.15904C9.61409 8.46364 9.25466 8.54154 8.94983 8.4484V23.8591C10.0546 24.2731 11.2507 24.5 12.5 24.5C18.0894 24.5 22.6205 19.9689 22.6205 14.3795Z" fill="url(#paint3_linear_122_253)"/>
<path d="M21.8492 18.2599L15.2701 11.6809L8.55505 21.3349L11.6876 24.4675C11.9556 24.4888 12.2265 24.5 12.5 24.5C16.7146 24.5 20.3269 21.9235 21.8492 18.2599Z" fill="url(#paint4_linear_122_253)"/>
<path d="M17.6271 16.1052C17.6234 16.1134 17.6196 16.1215 17.6158 16.1296C17.4667 16.4468 16.9897 16.3209 17.0191 15.9716C17.0728 15.3331 16.9938 14.6733 16.7638 14.0307C16.0171 11.9449 13.5102 9.56988 11.2902 9.5441C11.0531 9.54134 10.917 9.81274 11.057 10.0041C11.2435 10.2593 11.395 10.5469 11.5022 10.8623C11.8543 11.8978 11.6376 13.0003 11.0177 13.8194C10.7593 14.1609 10.2106 13.9923 10.2015 13.5641C10.2015 13.561 10.2014 13.5579 10.2014 13.5548C10.1977 13.3278 10.235 13.1099 10.3064 12.9081C10.3379 12.8191 10.2554 12.7315 10.165 12.7587C8.90652 13.1381 7.94957 14.99 7.94957 16.3109C7.94957 16.4074 7.95496 16.5026 7.9649 16.5964C7.96612 16.7719 7.99579 16.9503 8.05776 17.1258C8.06001 17.1321 8.06221 17.1384 8.06446 17.1447C8.08377 17.1987 8.10431 17.2518 8.12535 17.3045C7.82727 16.9402 7.57377 16.5379 7.3732 16.1061C7.28001 15.9055 6.98512 15.9454 6.94888 16.1636C6.88434 16.5522 6.85059 16.9313 6.85059 17.2917C6.85059 20.4117 9.37987 22.941 12.4999 22.941C15.62 22.941 18.1492 20.4117 18.1492 17.2917C18.1492 16.9313 18.1154 16.5522 18.0509 16.1635C18.0148 15.9458 17.7201 15.905 17.6271 16.1052Z" fill="url(#paint5_linear_122_253)"/>
<path d="M18.1493 17.2917C18.1493 16.9313 18.1155 16.5522 18.0509 16.1635C18.0148 15.9458 17.72 15.905 17.6271 16.1052C17.6233 16.1134 17.6196 16.1215 17.6157 16.1296C17.4667 16.4468 16.9897 16.3209 17.019 15.9716C17.0727 15.3331 16.9938 14.6733 16.7637 14.0307C16.017 11.9449 13.5101 9.56988 11.2902 9.5441C11.0531 9.54134 10.917 9.81274 11.0569 10.0041C11.2434 10.2593 11.3949 10.5469 11.5022 10.8623C11.8542 11.8978 11.6375 13.0003 11.0176 13.8194C10.889 13.9894 10.6883 14.0329 10.5182 13.981V22.5833C11.1349 22.8144 11.8026 22.9411 12.4999 22.9411C15.62 22.9411 18.1493 20.4117 18.1493 17.2917Z" fill="url(#paint6_linear_122_253)"/>
<path d="M7.94957 16.3109C7.94957 16.4074 7.95496 16.5026 7.9649 16.5965C7.96612 16.7719 7.99579 16.9503 8.05776 17.1258C8.06001 17.1321 8.06221 17.1384 8.06446 17.1447C8.08377 17.1987 8.10431 17.2518 8.12535 17.3045C7.82727 16.9402 7.57377 16.538 7.3732 16.1061C7.28001 15.9055 6.98512 15.9454 6.94888 16.1636C6.88434 16.5522 6.85059 16.9313 6.85059 17.2917C6.85059 20.4117 9.37987 22.941 12.4999 22.941C15.62 22.941 18.1492 20.4117 18.1492 17.2917C18.1492 16.9313 18.1154 16.5522 18.0509 16.1635C18.0148 15.9457 17.72 15.905 17.6271 16.1052C17.6233 16.1133 17.6196 16.1214 17.6157 16.1295C17.4666 16.4468 16.9897 16.3208 17.019 15.9715C17.0315 15.8237 17.0364 15.6748 17.0344 15.5252H8.04618C7.98323 15.797 7.94957 16.0633 7.94957 16.3109Z" fill="url(#paint7_linear_122_253)"/>
<path d="M7.94957 16.3109C7.94957 16.4074 7.95496 16.5026 7.9649 16.5965C7.96612 16.7719 7.99579 16.9503 8.05776 17.1258C8.06001 17.1321 8.06221 17.1384 8.06446 17.1447C8.08377 17.1987 8.10431 17.2518 8.12535 17.3045C7.82727 16.9402 7.57377 16.538 7.3732 16.1061C7.28001 15.9055 6.98512 15.9454 6.94888 16.1636C6.88434 16.5522 6.85059 16.9313 6.85059 17.2917C6.85059 20.4117 9.37987 22.941 12.4999 22.941C15.62 22.941 18.1492 20.4117 18.1492 17.2917C18.1492 16.9313 18.1154 16.5522 18.0509 16.1635C18.0148 15.9457 17.72 15.905 17.6271 16.1052C17.6233 16.1133 17.6196 16.1214 17.6157 16.1295C17.4666 16.4468 16.9897 16.3208 17.019 15.9715C17.0315 15.8237 17.0364 15.6748 17.0344 15.5252H8.04618C7.98323 15.797 7.94957 16.0633 7.94957 16.3109Z" fill="url(#paint8_linear_122_253)"/>
<path d="M3.46148 8.90581C4.20196 9.05768 4.79203 8.29615 4.49643 7.60043C4.27551 7.08049 4.3102 6.46334 4.64343 5.95559C4.64399 5.95474 4.64456 5.9539 4.64507 5.95306C4.72931 5.82518 4.66204 5.65306 4.51265 5.6194C3.82237 5.46392 3.07762 5.73935 2.66643 6.36584C2.13656 7.17321 2.36151 8.25729 3.16888 8.78721C3.25931 8.84646 3.35798 8.88457 3.46148 8.90581Z" fill="url(#paint9_linear_122_253)"/>
<path d="M3.46148 8.90581C4.20196 9.05768 4.79203 8.29615 4.49643 7.60043C4.27551 7.08049 4.3102 6.46334 4.64343 5.95559C4.64399 5.95474 4.64456 5.9539 4.64507 5.95306C4.72931 5.82518 4.66204 5.65306 4.51265 5.6194C3.82237 5.46392 3.07762 5.73935 2.66643 6.36584C2.13656 7.17321 2.36151 8.25729 3.16888 8.78721C3.25931 8.84646 3.35798 8.88457 3.46148 8.90581Z" fill="url(#paint10_linear_122_253)"/>
<path d="M3.46148 8.90581C4.20196 9.05768 4.79203 8.29615 4.49643 7.60043C4.27551 7.08049 4.3102 6.46334 4.64343 5.95559C4.64399 5.95474 4.64456 5.9539 4.64507 5.95306C4.72931 5.82518 4.66204 5.65306 4.51265 5.6194C3.82237 5.46392 3.07762 5.73935 2.66643 6.36584C2.13656 7.17321 2.36151 8.25729 3.16888 8.78721C3.25931 8.84646 3.35798 8.88457 3.46148 8.90581Z" fill="url(#paint11_linear_122_253)"/>
</g>
<defs>
<linearGradient id="paint0_linear_122_253" x1="7.25635" y1="8.77704" x2="17.1552" y2="18.6759" gradientUnits="userSpaceOnUse">
<stop stop-color="#FFB2A1"/>
<stop offset="1" stop-color="#FF6645"/>
</linearGradient>
<linearGradient id="paint1_linear_122_253" x1="14.7549" y1="17.9797" x2="18.2636" y2="22.2235" gradientUnits="userSpaceOnUse">
<stop stop-color="#FF2E00" stop-opacity="0"/>
<stop offset="0.2343" stop-color="#FF3D00" stop-opacity="0.234"/>
<stop offset="0.5173" stop-color="#FF3D00" stop-opacity="0.517"/>
<stop offset="0.8243" stop-color="#FF3D00" stop-opacity="0.824"/>
<stop offset="1" stop-color="#FF3D00"/>
</linearGradient>
<linearGradient id="paint2_linear_122_253" x1="12.182" y1="17.8092" x2="11.5471" y2="24.6928" gradientUnits="userSpaceOnUse">
<stop stop-color="#FF5C00" stop-opacity="0"/>
<stop offset="0.2343" stop-color="#FF3D00" stop-opacity="0.234"/>
<stop offset="0.5173" stop-color="#FF3D00" stop-opacity="0.517"/>
<stop offset="0.8243" stop-color="#FF4D00" stop-opacity="0.824"/>
<stop offset="1" stop-color="#FF4D00"/>
<stop offset="1" stop-color="#FF4D00"/>
</linearGradient>
<linearGradient id="paint3_linear_122_253" x1="14.9838" y1="11.3464" x2="21.266" y2="8.47264" gradientUnits="userSpaceOnUse">
<stop stop-color="#FE2103" stop-opacity="0"/>
<stop offset="0.2343" stop-color="#F92F03" stop-opacity="0.234"/>
<stop offset="0.5173" stop-color="#EA4803" stop-opacity="0.517"/>
<stop offset="0.8243" stop-color="#D24002" stop-opacity="0.824"/>
<stop offset="1" stop-color="#C02F01"/>
</linearGradient>
<linearGradient id="paint4_linear_122_253" x1="20.1067" y1="22.973" x2="12.4211" y2="17.2924" gradientUnits="userSpaceOnUse">
<stop stop-color="#FF3D00" stop-opacity="0"/>
<stop offset="0.2343" stop-color="#FF4D00" stop-opacity="0.234"/>
<stop offset="0.5173" stop-color="#DC3500" stop-opacity="0.517"/>
<stop offset="0.8243" stop-color="#E32900" stop-opacity="0.824"/>
<stop offset="1" stop-color="#DB4200"/>
</linearGradient>
<linearGradient id="paint5_linear_122_253" x1="10.1798" y1="14.5071" x2="14.7244" y2="19.7868" gradientUnits="userSpaceOnUse">
<stop stop-color="#FEF0AE"/>
<stop offset="1" stop-color="#FAC600"/>
</linearGradient>
<linearGradient id="paint6_linear_122_253" x1="15.0738" y1="15.2945" x2="16.6109" y2="14.7599" gradientUnits="userSpaceOnUse">
<stop stop-color="#FE9738" stop-opacity="0"/>
<stop offset="1" stop-color="#FE9738"/>
</linearGradient>
<linearGradient id="paint7_linear_122_253" x1="10.9313" y1="20.143" x2="9.79518" y2="21.992" gradientUnits="userSpaceOnUse">
<stop stop-color="#FE9738" stop-opacity="0"/>
<stop offset="1" stop-color="#FE9738"/>
</linearGradient>
<linearGradient id="paint8_linear_122_253" x1="13.8531" y1="20.3297" x2="14.7441" y2="22.2232" gradientUnits="userSpaceOnUse">
<stop stop-color="#FE9738" stop-opacity="0"/>
<stop offset="1" stop-color="#FE9738"/>
</linearGradient>
<linearGradient id="paint9_linear_122_253" x1="2.88121" y1="6.39045" x2="4.95299" y2="8.1281" gradientUnits="userSpaceOnUse">
<stop stop-color="#FFA1AE"/>
<stop offset="1" stop-color="#FF4565"/>
</linearGradient>
<linearGradient id="paint10_linear_122_253" x1="3.43312" y1="7.69114" x2="2.96526" y2="8.91082" gradientUnits="userSpaceOnUse">
<stop stop-color="#C02F01" stop-opacity="0"/>
<stop offset="0.2343" stop-color="#C02F01" stop-opacity="0.234"/>
<stop offset="0.5173" stop-color="#C02F01" stop-opacity="0.517"/>
<stop offset="0.8243" stop-color="#C02F01" stop-opacity="0.824"/>
<stop offset="1" stop-color="#C02F01"/>
</linearGradient>
<linearGradient id="paint11_linear_122_253" x1="3.42112" y1="7.0962" x2="4.94151" y2="7.54732" gradientUnits="userSpaceOnUse">
<stop stop-color="#FE2103" stop-opacity="0"/>
<stop offset="0.2343" stop-color="#F92F03" stop-opacity="0.234"/>
<stop offset="0.5173" stop-color="#EA1F03" stop-opacity="0.517"/>
<stop offset="0.8243" stop-color="#D23402" stop-opacity="0.824"/>
<stop offset="1" stop-color="#C02F01"/>
</linearGradient>
<clipPath id="clip0_122_253">
<rect width="24" height="24" fill="white" transform="translate(0.5 0.5)"/>
</clipPath>
</defs>
</svg>
